<svg width="14" height="14" viewBox="0 0 14 14" fill="#002262" xmlns="http://www.w3.org/2000/svg">
<path fill-rule="#002262" clip-rule="evenodd" d="M7.74998 1.37498V0.624978C7.74821 0.521033 7.78883 0.420846 7.86248 0.347478C7.94475 0.274992 8.05331 0.23971 8.16248 0.249978C11.1616 0.449967 13.55 2.83833 13.75 5.83748C13.7561 5.94159 13.7211 6.04395 13.6525 6.12248C13.5791 6.19613 13.4789 6.23675 13.375 6.23498H12.625C12.429 6.23561 12.2657 6.08529 12.25 5.88998C12.0791 3.67816 10.3218 1.92086 8.10998 1.74998C7.90876 1.74192 7.74982 1.57637 7.74998 1.37498ZM7.87748 3.35497C7.79558 3.42692 7.74903 3.53096 7.74998 3.63998V4.38998C7.74694 4.56926 7.87372 4.72457 8.04998 4.75748C8.65303 4.86787 9.1282 5.33413 9.24998 5.93498C9.28289 6.11124 9.4382 6.23802 9.61748 6.23498H10.3675C10.4765 6.23592 10.5805 6.18938 10.6525 6.10748C10.7231 6.02444 10.7557 5.91566 10.7425 5.80748C10.5466 4.48735 9.51202 3.44971 8.19248 3.24997C8.08211 3.24079 7.97304 3.27896 7.89248 3.35497H7.87748ZM12.3175 13.3076C12.0357 13.5912 11.6523 13.7504 11.2525 13.7501H10.75C9.49698 13.7448 8.26497 13.4278 7.165 12.8276L6.8275 12.6401C4.49556 11.3864 2.58377 9.47456 1.33 7.14263L1.1425 6.80513C0.557604 5.71139 0.251077 4.49044 0.25 3.25013V2.74763C0.249684 2.34784 0.408971 1.96447 0.6925 1.68263L1.96 0.415127C2.08309 0.291075 2.25685 0.231283 2.43022 0.253321C2.60358 0.275359 2.75686 0.376723 2.845 0.527627L4.5325 3.42263C4.70315 3.71729 4.65387 4.08994 4.4125 4.33013L2.995 5.74763C2.87728 5.86405 2.84985 6.0439 2.9275 6.19013L3.19 6.68513C4.13278 8.43147 5.56695 9.86302 7.315 10.8026L7.81 11.0726C7.95623 11.1503 8.13608 11.1228 8.2525 11.0051L9.67 9.58763C9.91018 9.34625 10.2828 9.29698 10.5775 9.46763L13.4725 11.1551C13.6234 11.2433 13.7248 11.3965 13.7468 11.5699C13.7688 11.7433 13.7091 11.917 13.585 12.0401L12.3175 13.3076Z" fill="#8181F6"/>
</svg>
