<svg width="12" height="14" viewBox="0 0 12 14" fill="none" xmlns="http://www.w3.org/2000/svg">
<path fill-rule="evenodd" clip-rule="evenodd" d="M0 6.00016C0 1.82683 1.58 0.333496 6 0.333496C10.42 0.333496 12 1.82683 12 6.00016C12 10.1735 10.42 11.6668 6 11.6668H5.56L3.42667 13.5802C3.36606 13.6344 3.28801 13.6652 3.20667 13.6668H3C2.81591 13.6668 2.66667 13.5176 2.66667 13.3335V11.2002C0.753333 10.4802 0 8.8735 0 6.00016ZM5.95998 4.44682C5.87877 4.50837 5.83173 4.60493 5.83331 4.70682V5.04682C5.83331 5.19497 5.93109 5.32534 6.07331 5.36682C6.34179 5.44826 6.55188 5.65835 6.63331 5.92682C6.6748 6.06904 6.80517 6.16682 6.95331 6.16682H7.29331C7.39521 6.16841 7.49176 6.12137 7.55331 6.04015C7.62068 5.96369 7.64566 5.85877 7.61998 5.76015C7.46485 5.07238 6.92776 4.53528 6.23998 4.38015C6.14137 4.35448 6.03644 4.37946 5.95998 4.44682ZM8.28667 8.70679C8.12819 8.95678 7.8949 9.15041 7.62 9.26012C7.42638 9.34354 7.20695 9.34354 7.01333 9.26012C5.3682 8.60284 4.00496 7.39054 3.16 5.83346C2.99193 5.49535 2.84281 5.14814 2.71333 4.79346C2.69131 4.71711 2.6757 4.63907 2.66667 4.56012C2.68683 4.06461 3.05617 3.6533 3.54667 3.58012H3.67333C3.79529 3.58698 3.91093 3.63654 4 3.72012C4.34065 4.04431 4.61863 4.4285 4.82 4.85346C4.90909 5.01847 4.86693 5.22361 4.72 5.34012L4.62 5.42679C4.46722 5.50088 4.35513 5.63888 4.31395 5.80361C4.27277 5.96834 4.30672 6.14285 4.40667 6.28012C4.71147 6.91677 5.24809 7.41284 5.90667 7.66679C6.0745 7.74398 6.27318 7.70044 6.39333 7.56012L6.44 7.50012C6.70667 7.05346 7.10667 7.10012 7.45333 7.35346L8.12 7.86679C8.5 8.13346 8.5 8.37346 8.28667 8.72679V8.70679ZM8.97999 6.15344C9.0769 6.15428 9.16937 6.11291 9.23333 6.0401V6.05344C9.30354 5.98865 9.34036 5.89538 9.33333 5.8001C9.16471 4.14447 7.85563 2.83538 6.19999 2.66677C6.10786 2.65455 6.01506 2.68385 5.94666 2.74677C5.87385 2.81072 5.83248 2.9032 5.83333 3.0001V3.33344C5.83504 3.50187 5.95981 3.64366 6.12666 3.66677C7.2841 3.79299 8.2001 4.70345 8.33333 5.8601C8.35644 6.02695 8.49823 6.15173 8.66666 6.15344H8.97999Z" fill="#002262"/>
</svg>
