<svg width="14" height="14" viewBox="0 0 14 14" fill="none" xmlns="http://www.w3.org/2000/svg">
<path fill-rule="evenodd" clip-rule="evenodd" d="M1.06393 3.96796C2.20135 1.73804 4.49079 0.334301 6.99155 0.333522C9.84546 0.325607 12.387 2.13968 13.3102 4.84356C14.2335 7.54744 13.333 10.5397 11.0715 12.2828C8.81009 14.0259 5.69066 14.1321 3.31619 12.5469L1.41858 13.1602C1.2981 13.1965 1.16742 13.1632 1.07901 13.0735C0.989018 12.9852 0.957913 12.8528 0.99911 12.7335L1.59835 10.9069C0.132913 8.87791 -0.0735001 6.19788 1.06393 3.96796ZM9.53499 10.6869C10.099 10.5937 10.5895 10.2475 10.8666 9.74691C10.9669 9.45278 10.9831 9.13642 10.9133 8.83358C10.8706 8.76042 10.7612 8.70956 10.59 8.63002C10.574 8.62258 10.5575 8.61489 10.5404 8.60691C10.4861 8.58155 10.3763 8.52813 10.2415 8.46257C9.88022 8.28686 9.33966 8.02394 9.20874 7.98025C9.03671 7.89706 8.82973 7.95751 8.72934 8.12025C8.57049 8.35325 8.39703 8.57592 8.21 8.78691C8.08527 8.9066 7.8993 8.93586 7.74392 8.86025C7.16597 8.64004 6.63501 8.31202 6.17923 7.89358C5.75733 7.50356 5.39402 7.05446 5.10059 6.56025C5.01287 6.42097 5.04778 6.23748 5.18049 6.14025C5.23129 6.07484 5.28408 6.01934 5.33669 5.96402C5.3806 5.91785 5.42438 5.87181 5.46679 5.82025C5.55531 5.72992 5.62942 5.62648 5.68652 5.51358C5.73679 5.39564 5.72428 5.26027 5.65322 5.15358C5.60662 5.04691 5.1938 4.04025 5.06064 3.71358C4.92747 3.38691 4.8276 3.38691 4.63451 3.38691H4.41479C4.17093 3.38224 3.93389 3.46768 3.74896 3.62691C3.30456 4.04862 3.06213 4.6409 3.08313 5.25358C3.14892 5.98284 3.4241 6.67746 3.87547 7.25358C4.69802 8.51638 5.84905 9.53057 7.2046 10.1869C8.72934 10.8202 9.18876 10.7602 9.53499 10.6869Z" fill="#002262"/>
</svg>
