<svg width="120" height="120" viewBox="0 0 120 120" fill="none" xmlns="http://www.w3.org/2000/svg">
<rect width="120" height="120" fill="#5B5B5B"/>
<g clip-path="url(#clip0)">
<rect width="1440" height="900" transform="translate(-660 -251)" fill="white"/>
<path d="M-660 -251H780V1039H-660V-251Z" fill="#F4F8FF"/>
<rect x="-137" y="21" width="393" height="453" rx="4" fill="white"/>
<line x1="-134.5" y1="23.0859" x2="254.503" y2="23.0859" stroke="#8181F6" stroke-width="3" stroke-linecap="round" stroke-linejoin="round"/>
<path d="M-107.873 91.362C-109.145 92.622 -110.693 93.252 -112.517 93.252C-114.341 93.252 -115.889 92.622 -117.161 91.362C-118.421 90.09 -119.051 88.536 -119.051 86.7C-119.051 84.864 -118.421 83.316 -117.161 82.056C-115.889 80.784 -114.341 80.148 -112.517 80.148C-110.693 80.148 -109.145 80.784 -107.873 82.056C-106.601 83.316 -105.965 84.864 -105.965 86.7C-105.965 88.536 -106.601 90.09 -107.873 91.362ZM-115.415 89.67C-114.635 90.438 -113.669 90.822 -112.517 90.822C-111.365 90.822 -110.399 90.438 -109.619 89.67C-108.839 88.89 -108.449 87.9 -108.449 86.7C-108.449 85.5 -108.839 84.51 -109.619 83.73C-110.399 82.95 -111.365 82.56 -112.517 82.56C-113.669 82.56 -114.635 82.95 -115.415 83.73C-116.195 84.51 -116.585 85.5 -116.585 86.7C-116.585 87.9 -116.195 88.89 -115.415 89.67ZM-92.6087 83.19C-91.5647 84.09 -91.0427 85.26 -91.0427 86.7C-91.0427 88.14 -91.5647 89.31 -92.6087 90.21C-93.6527 91.11 -95.0507 91.644 -96.8027 91.812V93.27H-99.2327V91.812C-100.997 91.632 -102.395 91.098 -103.427 90.21C-104.459 89.31 -104.975 88.14 -104.975 86.7C-104.975 85.26 -104.459 84.096 -103.427 83.208C-102.395 82.308 -100.997 81.768 -99.2327 81.588V80.13H-96.8027V81.588C-95.0507 81.756 -93.6527 82.29 -92.6087 83.19ZM-96.8027 89.544C-94.6187 89.292 -93.5267 88.344 -93.5267 86.7C-93.5267 85.044 -94.6187 84.09 -96.8027 83.838V89.544ZM-102.509 86.7C-102.509 88.344 -101.417 89.286 -99.2327 89.526V83.856C-101.417 84.096 -102.509 85.044 -102.509 86.7ZM-82.1806 93V85.314L-87.5806 93H-89.4706V80.4H-86.9866V88.104L-81.5866 80.4H-79.6966V93H-82.1806ZM-71.3833 93.252C-73.2793 93.252 -74.8453 92.622 -76.0813 91.362C-77.3173 90.102 -77.9353 88.548 -77.9353 86.7C-77.9353 84.84 -77.3173 83.286 -76.0813 82.038C-74.8453 80.778 -73.2793 80.148 -71.3833 80.148C-70.2433 80.148 -69.1933 80.418 -68.2333 80.958C-67.2613 81.486 -66.5053 82.206 -65.9653 83.118L-68.1073 84.36C-68.4193 83.796 -68.8633 83.358 -69.4393 83.046C-70.0153 82.722 -70.6633 82.56 -71.3833 82.56C-72.6073 82.56 -73.5973 82.944 -74.3533 83.712C-75.0973 84.48 -75.4693 85.476 -75.4693 86.7C-75.4693 87.912 -75.0973 88.902 -74.3533 89.67C-73.5973 90.438 -72.6073 90.822 -71.3833 90.822C-70.6633 90.822 -70.0153 90.666 -69.4393 90.354C-68.8513 90.03 -68.4073 89.592 -68.1073 89.04L-65.9653 90.282C-66.5053 91.194 -67.2553 91.92 -68.2153 92.46C-69.1753 92.988 -70.2313 93.252 -71.3833 93.252ZM-58.5864 93.252C-60.4824 93.252 -62.0484 92.622 -63.2844 91.362C-64.5204 90.102 -65.1384 88.548 -65.1384 86.7C-65.1384 84.84 -64.5204 83.286 -63.2844 82.038C-62.0484 80.778 -60.4824 80.148 -58.5864 80.148C-57.4464 80.148 -56.3964 80.418 -55.4364 80.958C-54.4644 81.486 -53.7084 82.206 -53.1684 83.118L-55.3104 84.36C-55.6224 83.796 -56.0664 83.358 -56.6424 83.046C-57.2184 82.722 -57.8664 82.56 -58.5864 82.56C-59.8104 82.56 -60.8004 82.944 -61.5564 83.712C-62.3004 84.48 -62.6724 85.476 -62.6724 86.7C-62.6724 87.912 -62.3004 88.902 -61.5564 89.67C-60.8004 90.438 -59.8104 90.822 -58.5864 90.822C-57.8664 90.822 -57.2184 90.666 -56.6424 90.354C-56.0544 90.03 -55.6104 89.592 -55.3104 89.04L-53.1684 90.282C-53.7084 91.194 -54.4584 91.92 -55.4184 92.46C-56.3784 92.988 -57.4344 93.252 -58.5864 93.252ZM-44.4785 80.4H-42.0125V93H-44.4785V87.78H-49.1585V93H-51.6425V80.4H-49.1585V85.404H-44.4785V80.4ZM-39.6718 93V80.4H-37.1878V84.54H-34.9738C-33.7618 84.54 -32.7418 84.948 -31.9138 85.764C-31.0858 86.58 -30.6718 87.582 -30.6718 88.77C-30.6718 89.958 -31.0858 90.96 -31.9138 91.776C-32.7418 92.592 -33.7618 93 -34.9738 93H-39.6718ZM-29.5198 93V80.4H-27.0538V93H-29.5198ZM-37.1878 90.678H-34.9738C-34.4458 90.678 -34.0078 90.498 -33.6598 90.138C-33.3118 89.778 -33.1378 89.322 -33.1378 88.77C-33.1378 88.218 -33.3118 87.762 -33.6598 87.402C-34.0078 87.042 -34.4458 86.862 -34.9738 86.862H-37.1878V90.678ZM-22.2288 90.624H-16.9188V93H-24.7128V80.4H-17.0088V82.776H-22.2288V85.458H-17.4588V87.798H-22.2288V90.624ZM-12.2159 90.516L-13.5659 95.52H-15.4559L-14.7359 90.516H-12.2159ZM4.18788 93H1.32588L-3.17412 87.096V93H-5.65812V80.4H-3.17412V85.962L1.14588 80.4H4.00788L-0.654125 86.52L4.18788 93ZM14.9458 91.362C13.6738 92.622 12.1258 93.252 10.3018 93.252C8.47783 93.252 6.92983 92.622 5.65783 91.362C4.39783 90.09 3.76783 88.536 3.76783 86.7C3.76783 84.864 4.39783 83.316 5.65783 82.056C6.92983 80.784 8.47783 80.148 10.3018 80.148C12.1258 80.148 13.6738 80.784 14.9458 82.056C16.2178 83.316 16.8538 84.864 16.8538 86.7C16.8538 88.536 16.2178 90.09 14.9458 91.362ZM7.40383 89.67C8.18383 90.438 9.14983 90.822 10.3018 90.822C11.4538 90.822 12.4198 90.438 13.1998 89.67C13.9798 88.89 14.3698 87.9 14.3698 86.7C14.3698 85.5 13.9798 84.51 13.1998 83.73C12.4198 82.95 11.4538 82.56 10.3018 82.56C9.14983 82.56 8.18383 82.95 7.40383 83.73C6.62383 84.51 6.23383 85.5 6.23383 86.7C6.23383 87.9 6.62383 88.89 7.40383 89.67ZM30.9297 80.4V93H28.4637V84.828L24.9177 90.678H24.6297L21.0837 84.846V93H18.5997V80.4H21.1557L24.7737 86.358L28.3737 80.4H30.9297ZM45.6074 80.4V93H43.1414V84.828L39.5954 90.678H39.3074L35.7614 84.846V93H33.2774V80.4H35.8334L39.4514 86.358L43.0514 80.4H45.6074ZM50.4392 90.624H55.7492V93H47.9552V80.4H55.6592V82.776H50.4392V85.458H55.2092V87.798H50.4392V90.624ZM62.1981 80.4C63.4101 80.4 64.4301 80.808 65.2581 81.624C66.0861 82.44 66.5001 83.442 66.5001 84.63C66.5001 85.818 66.0861 86.82 65.2581 87.636C64.4301 88.452 63.4101 88.86 62.1981 88.86H59.9841V93H57.5001V80.4H62.1981ZM62.1981 86.538C62.7261 86.538 63.1641 86.358 63.5121 85.998C63.8601 85.626 64.0341 85.17 64.0341 84.63C64.0341 84.078 63.8601 83.622 63.5121 83.262C63.1641 82.902 62.7261 82.722 62.1981 82.722H59.9841V86.538H62.1981ZM74.6873 80.4H77.1713V93H74.6873V88.392C73.9193 88.716 73.0973 88.878 72.2213 88.878C70.9493 88.878 69.8993 88.524 69.0713 87.816C68.2553 87.096 67.8473 86.124 67.8473 84.9V80.4H70.3313V84.576C70.3313 85.176 70.5053 85.65 70.8533 85.998C71.2133 86.334 71.6873 86.502 72.2753 86.502C73.1513 86.502 73.9553 86.328 74.6873 85.98V80.4ZM81.9919 90.624H87.3019V93H79.5079V80.4H87.2119V82.776H81.9919V85.458H86.7619V87.798H81.9919V90.624ZM94.9409 93.252C93.0449 93.252 91.4789 92.622 90.2429 91.362C89.0069 90.102 88.3889 88.548 88.3889 86.7C88.3889 84.84 89.0069 83.286 90.2429 82.038C91.4789 80.778 93.0449 80.148 94.9409 80.148C96.0809 80.148 97.1309 80.418 98.0909 80.958C99.0629 81.486 99.8189 82.206 100.359 83.118L98.2169 84.36C97.9049 83.796 97.4609 83.358 96.8849 83.046C96.3089 82.722 95.6609 82.56 94.9409 82.56C93.7169 82.56 92.7269 82.944 91.9709 83.712C91.2269 84.48 90.8549 85.476 90.8549 86.7C90.8549 87.912 91.2269 88.902 91.9709 89.67C92.7269 90.438 93.7169 90.822 94.9409 90.822C95.6609 90.822 96.3089 90.666 96.8849 90.354C97.4729 90.03 97.9169 89.592 98.2169 89.04L100.359 90.282C99.8189 91.194 99.0689 91.92 98.1089 92.46C97.1489 92.988 96.0929 93.252 94.9409 93.252ZM111.731 93H108.869L104.369 87.096V93H101.885V80.4H104.369V85.962L108.689 80.4H111.551L106.889 86.52L111.731 93ZM120.249 93V85.314L114.849 93H112.959V80.4H115.443V88.104L120.843 80.4H122.733V93H120.249ZM127.554 90.624H132.864V93H125.07V80.4H132.774V82.776H127.554V85.458H132.324V87.798H127.554V90.624ZM148.529 80.4V93H146.045V82.776H141.599V93H139.115V80.4H148.529ZM153.359 90.624H158.669V93H150.875V80.4H158.579V82.776H153.359V85.458H158.129V87.798H153.359V90.624ZM165.118 80.4C166.33 80.4 167.35 80.808 168.178 81.624C169.006 82.44 169.42 83.442 169.42 84.63C169.42 85.818 169.006 86.82 168.178 87.636C167.35 88.452 166.33 88.86 165.118 88.86H162.904V93H160.42V80.4H165.118ZM165.118 86.538C165.646 86.538 166.084 86.358 166.432 85.998C166.78 85.626 166.954 85.17 166.954 84.63C166.954 84.078 166.78 83.622 166.432 83.262C166.084 82.902 165.646 82.722 165.118 82.722H162.904V86.538H165.118ZM173.521 90.624H178.831V93H171.037V80.4H178.741V82.776H173.521V85.458H178.291V87.798H173.521V90.624ZM183.066 90.624H188.376V93H180.582V80.4H188.286V82.776H183.066V85.458H187.836V87.798H183.066V90.624ZM196.805 86.484C198.005 87.12 198.605 88.116 198.605 89.472C198.605 90.6 198.179 91.512 197.327 92.208C196.475 92.904 195.377 93.252 194.033 93.252C191.693 93.252 190.127 92.262 189.335 90.282L191.477 89.076C191.861 90.3 192.713 90.912 194.033 90.912C194.717 90.912 195.239 90.768 195.599 90.48C195.959 90.192 196.139 89.802 196.139 89.31C196.139 88.818 195.959 88.428 195.599 88.14C195.251 87.852 194.747 87.708 194.087 87.708H192.521V85.494H193.709C194.333 85.494 194.819 85.362 195.167 85.098C195.515 84.822 195.689 84.45 195.689 83.982C195.689 83.514 195.539 83.148 195.239 82.884C194.939 82.608 194.495 82.47 193.907 82.47C192.827 82.47 192.071 82.998 191.639 84.054L189.533 82.83C190.385 81.042 191.843 80.148 193.907 80.148C195.155 80.148 196.175 80.484 196.967 81.156C197.759 81.828 198.155 82.716 198.155 83.82C198.155 84.948 197.705 85.836 196.805 86.484ZM209.848 90.624H211.198V95.412H208.714V93H201.748V95.412H199.264V90.624H200.488C201.184 89.652 201.532 88.23 201.532 86.358V80.4H209.848V90.624ZM203.152 90.624H207.364V82.722H204.016V86.394C204.016 88.218 203.728 89.628 203.152 90.624ZM212.856 93V80.4H215.34V84.54H217.554C218.766 84.54 219.786 84.948 220.614 85.764C221.442 86.58 221.856 87.582 221.856 88.77C221.856 89.958 221.442 90.96 220.614 91.776C219.786 92.592 218.766 93 217.554 93H212.856ZM223.008 93V80.4H225.474V93H223.008ZM215.34 90.678H217.554C218.082 90.678 218.52 90.498 218.868 90.138C219.216 89.778 219.39 89.322 219.39 88.77C219.39 88.218 219.216 87.762 218.868 87.402C218.52 87.042 218.082 86.862 217.554 86.862H215.34V90.678Z" fill="#002262"/>
<rect opacity="0.7" x="-660" y="-251" width="1440" height="900" fill="black"/>
<rect x="-242" y="-82" width="604" height="562" fill="white"/>
<path opacity="0.2" d="M60 0C26.9147 0 0 26.9147 0 60C0 93.0853 26.9147 120 60 120C93.0853 120 120 93.0853 120 60C120 26.9147 93.0853 0 60 0Z" fill="#8181F6"/>
<path d="M90.4101 47.2849L57.9098 79.7843C56.9348 80.7593 55.6549 81.25 54.375 81.25C53.0951 81.25 51.8152 80.7593 50.8401 79.7843L34.5905 63.5346C32.6349 61.5799 32.6349 58.4195 34.5905 56.4649C36.5451 54.5093 39.7046 54.5093 41.6602 56.4649L54.375 69.1797L83.3404 40.2152C85.2951 38.2596 88.4546 38.2596 90.4101 40.2152C92.3648 42.1699 92.3648 45.3293 90.4101 47.2849Z" fill="#002262"/>
</g>
<defs>
<clipPath id="clip0">
<rect width="1440" height="900" fill="white" transform="translate(-660 -251)"/>
</clipPath>
</defs>
</svg>
