<?xml version="1.0" encoding="utf-8"?>
<!-- Generator: Adobe Illustrator 22.1.0, SVG Export Plug-In . SVG Version: 6.00 Build 0)  -->
<svg version="1.1" id="Слой_1" xmlns="http://www.w3.org/2000/svg" xmlns:xlink="http://www.w3.org/1999/xlink" x="0px" y="0px"
	 viewBox="0 0 437 115" style="enable-background:new 0 0 437 115;" xml:space="preserve">
<style type="text/css">
	.st0{fill:#F7C935;}
	.st1{font-family:'Raleway-Regular';}
	.st2{font-size:46px;}
	.st3{fill:#FFFFFF;}
</style>
<g id="Слой_1_1_">
</g>
<g id="Слой_2_1_">
	<path class="st0" d="M46,49c-4,7-8,15-18,20c-7,6-11,13-16,31c3-32,4-39,4-46C4,36-1,23,1,12c16,13,30,12,75,17c27,3,63,13,124,22
		C107,45,51,33,46,49z"/>
	<text transform="matrix(1 0 0 1 35.6665 107.1686)" class="st0 st1 st2">AUTO</text>
	<text transform="matrix(1 0 0 1 164.3665 107.1686)" class="st3 st1 st2">BRAZZERS</text>
</g>
<g id="Слой_3">
	<path class="st3" d="M436.5,60.5C390,33,366,29,289.5,28.5C228,3,163-13,46.5,16.5C122,25,163,41.6,205,41c68-1,100-5,161,0
		c70.2,8.9,50.5,56.9,50,58C416.5,98.2,431.1,71.8,436.5,60.5z M106,14c0,0,85-16,158,15C188,39,106,14,106,14z"/>
</g>
</svg>
