<svg width="197" height="184" viewBox="0 0 197 184" fill="#FFFFFF" xmlns="http://www.w3.org/2000/svg">
<circle cx="36" cy="52" r="4" fill="white"/>
<circle cx="100" cy="52" r="4" fill="white"/>
<circle cx="100" cy="100" r="4" fill="white"/>
<circle cx="36" cy="100" r="4" fill="white"/>
<circle cx="20" cy="100" r="4" fill="white"/>
<circle cx="177" cy="100" r="4" fill="white"/>
<circle cx="193" cy="100" r="4" fill="white"/>
<circle cx="4" cy="100" r="4" fill="white"/>
<circle cx="36" cy="68" r="4" fill="white"/>
<circle cx="20" cy="68" r="4" fill="white"/>
<circle cx="177" cy="68" r="4" fill="white"/>
<circle cx="100" cy="68" r="4" fill="white"/>
<circle cx="100" cy="116" r="4" fill="white"/>
<circle cx="36" cy="116" r="4" fill="white"/>
<circle cx="20" cy="116" r="4" fill="white"/>
<circle cx="177" cy="116" r="4" fill="white"/>
<circle cx="36" cy="84" r="4" fill="white"/>
<circle cx="20" cy="84" r="4" fill="white"/>
<circle cx="177" cy="84" r="4" fill="white"/>
<circle cx="193" cy="84" r="4" fill="white"/>
<circle cx="4" cy="84" r="4" fill="white"/>
<circle cx="100" cy="84" r="4" fill="white"/>
<circle cx="100" cy="132" r="4" fill="white"/>
<circle cx="100" cy="148" r="4" fill="white"/>
<circle cx="100" cy="36" r="4" fill="white"/>
<circle cx="100" cy="164" r="4" fill="white"/>
<circle cx="100" cy="180" r="4" fill="white"/>
<circle cx="100" cy="4" r="4" fill="white"/>
<circle cx="100" cy="20" r="4" fill="white"/>
<circle cx="36" cy="132" r="4" fill="white"/>
<circle cx="52" cy="52" r="4" fill="white"/>
<circle cx="116" cy="52" r="4" fill="white"/>
<circle cx="116" cy="100" r="4" fill="white"/>
<circle cx="52" cy="100" r="4" fill="white"/>
<circle cx="52" cy="68" r="4" fill="white"/>
<circle cx="116" cy="68" r="4" fill="white"/>
<circle cx="116" cy="116" r="4" fill="white"/>
<circle cx="52" cy="116" r="4" fill="white"/>
<circle cx="52" cy="84" r="4" fill="white"/>
<circle cx="116" cy="84" r="4" fill="white"/>
<circle cx="116" cy="132" r="4" fill="white"/>
<circle cx="116" cy="148" r="4" fill="white"/>
<circle cx="116" cy="36" r="4" fill="white"/>
<circle cx="116" cy="164" r="4" fill="white"/>
<circle cx="116" cy="20" r="4" fill="white"/>
<circle cx="52" cy="132" r="4" fill="white"/>
<circle cx="52" cy="148" r="4" fill="white"/>
<circle cx="52" cy="36" r="4" fill="white"/>
<circle cx="68" cy="52" r="4" fill="white"/>
<circle cx="132" cy="52" r="4" fill="white"/>
<circle cx="132" cy="100" r="4" fill="white"/>
<circle cx="68" cy="100" r="4" fill="white"/>
<circle cx="68" cy="68" r="4" fill="white"/>
<circle cx="132" cy="68" r="4" fill="white"/>
<circle cx="132" cy="116" r="4" fill="white"/>
<circle cx="68" cy="116" r="4" fill="white"/>
<circle cx="68" cy="84" r="4" fill="white"/>
<circle cx="132" cy="84" r="4" fill="white"/>
<circle cx="132" cy="132" r="4" fill="white"/>
<circle cx="132" cy="148" r="4" fill="white"/>
<circle cx="132" cy="36" r="4" fill="white"/>
<circle cx="68" cy="132" r="4" fill="white"/>
<circle cx="68" cy="148" r="4" fill="white"/>
<circle cx="68" cy="36" r="4" fill="white"/>
<circle cx="68" cy="164" r="4" fill="white"/>
<circle cx="68" cy="20" r="4" fill="white"/>
<circle cx="84" cy="52" r="4" fill="white"/>
<circle cx="161" cy="52" r="4" fill="white"/>
<circle cx="161" cy="100" r="4" fill="white"/>
<circle cx="84" cy="100" r="4" fill="white"/>
<circle cx="84" cy="68" r="4" fill="white"/>
<circle cx="161" cy="68" r="4" fill="white"/>
<circle cx="161" cy="116" r="4" fill="white"/>
<circle cx="84" cy="116" r="4" fill="white"/>
<circle cx="84" cy="84" r="4" fill="white"/>
<circle cx="161" cy="84" r="4" fill="white"/>
<circle cx="161" cy="132" r="4" fill="white"/>
<circle cx="84" cy="132" r="4" fill="white"/>
<circle cx="84" cy="148" r="4" fill="white"/>
<circle cx="84" cy="36" r="4" fill="white"/>
<circle cx="84" cy="164" r="4" fill="white"/>
<circle cx="84" cy="180" r="4" fill="white"/>
<circle cx="84" cy="4" r="4" fill="white"/>
<circle cx="84" cy="20" r="4" fill="white"/>
</svg>
