<svg width="184" height="194" viewBox="0 0 184 194" fill="none" xmlns="http://www.w3.org/2000/svg">
<ellipse cx="36" cy="54.6959" rx="4" ry="4.2074" fill="#EDEDED" fill-opacity="0.5"/>
<ellipse cx="100" cy="54.6959" rx="4" ry="4.2074" fill="#EDEDED" fill-opacity="0.5"/>
<ellipse cx="100" cy="105.185" rx="4" ry="4.20737" fill="#EDEDED" fill-opacity="0.5"/>
<ellipse cx="36" cy="105.185" rx="4" ry="4.20737" fill="#EDEDED" fill-opacity="0.5"/>
<ellipse cx="20" cy="105.185" rx="4" ry="4.20737" fill="#EDEDED" fill-opacity="0.5"/>
<ellipse cx="164" cy="105.185" rx="4" ry="4.20737" fill="#EDEDED" fill-opacity="0.5"/>
<ellipse cx="180" cy="105.185" rx="4" ry="4.20737" fill="#EDEDED" fill-opacity="0.5"/>
<ellipse cx="4" cy="105.185" rx="4" ry="4.20737" fill="#EDEDED" fill-opacity="0.5"/>
<ellipse cx="36" cy="71.5255" rx="4" ry="4.20743" fill="#EDEDED" fill-opacity="0.5"/>
<ellipse cx="20" cy="71.5255" rx="4" ry="4.20743" fill="#EDEDED" fill-opacity="0.5"/>
<ellipse cx="164" cy="71.5255" rx="4" ry="4.20743" fill="#EDEDED" fill-opacity="0.5"/>
<ellipse cx="100" cy="71.5255" rx="4" ry="4.20743" fill="#EDEDED" fill-opacity="0.5"/>
<ellipse cx="100" cy="122.014" rx="4" ry="4.20737" fill="#EDEDED" fill-opacity="0.5"/>
<ellipse cx="36" cy="122.014" rx="4" ry="4.20737" fill="#EDEDED" fill-opacity="0.5"/>
<ellipse cx="20" cy="122.014" rx="4" ry="4.20737" fill="#EDEDED" fill-opacity="0.5"/>
<ellipse cx="164" cy="122.014" rx="4" ry="4.20737" fill="#EDEDED" fill-opacity="0.5"/>
<ellipse cx="36" cy="88.3551" rx="4" ry="4.2074" fill="#EDEDED" fill-opacity="0.5"/>
<ellipse cx="20" cy="88.3551" rx="4" ry="4.2074" fill="#EDEDED" fill-opacity="0.5"/>
<ellipse cx="164" cy="88.3551" rx="4" ry="4.2074" fill="#EDEDED" fill-opacity="0.5"/>
<ellipse cx="180" cy="88.3551" rx="4" ry="4.2074" fill="#EDEDED" fill-opacity="0.5"/>
<ellipse cx="4" cy="88.3551" rx="4" ry="4.2074" fill="#EDEDED" fill-opacity="0.5"/>
<ellipse cx="100" cy="88.3551" rx="4" ry="4.2074" fill="#EDEDED" fill-opacity="0.5"/>
<ellipse cx="100" cy="138.844" rx="4" ry="4.2074" fill="#EDEDED" fill-opacity="0.5"/>
<ellipse cx="100" cy="155.673" rx="4" ry="4.20737" fill="#EDEDED" fill-opacity="0.5"/>
<ellipse cx="100" cy="37.8665" rx="4" ry="4.2074" fill="#EDEDED" fill-opacity="0.5"/>
<ellipse cx="100" cy="172.503" rx="4" ry="4.2074" fill="#EDEDED" fill-opacity="0.5"/>
<ellipse cx="100" cy="189.332" rx="4" ry="4.20737" fill="#EDEDED" fill-opacity="0.5"/>
<ellipse cx="100" cy="4.20737" rx="4" ry="4.20737" fill="#EDEDED" fill-opacity="0.5"/>
<ellipse cx="100" cy="21.037" rx="4" ry="4.2074" fill="#EDEDED" fill-opacity="0.5"/>
<ellipse cx="36" cy="138.844" rx="4" ry="4.2074" fill="#EDEDED" fill-opacity="0.5"/>
<ellipse cx="52" cy="54.6959" rx="4" ry="4.2074" fill="#EDEDED" fill-opacity="0.5"/>
<ellipse cx="116" cy="54.6959" rx="4" ry="4.2074" fill="#EDEDED" fill-opacity="0.5"/>
<ellipse cx="116" cy="105.185" rx="4" ry="4.20737" fill="#EDEDED" fill-opacity="0.5"/>
<ellipse cx="52" cy="105.185" rx="4" ry="4.20737" fill="#EDEDED" fill-opacity="0.5"/>
<ellipse cx="52" cy="71.5255" rx="4" ry="4.20743" fill="#EDEDED" fill-opacity="0.5"/>
<ellipse cx="116" cy="71.5255" rx="4" ry="4.20743" fill="#EDEDED" fill-opacity="0.5"/>
<ellipse cx="116" cy="122.014" rx="4" ry="4.20737" fill="#EDEDED" fill-opacity="0.5"/>
<ellipse cx="52" cy="122.014" rx="4" ry="4.20737" fill="#EDEDED" fill-opacity="0.5"/>
<ellipse cx="52" cy="88.3551" rx="4" ry="4.2074" fill="#EDEDED" fill-opacity="0.5"/>
<ellipse cx="116" cy="88.3551" rx="4" ry="4.2074" fill="#EDEDED" fill-opacity="0.5"/>
<ellipse cx="116" cy="138.844" rx="4" ry="4.2074" fill="#EDEDED" fill-opacity="0.5"/>
<ellipse cx="116" cy="155.673" rx="4" ry="4.20737" fill="#EDEDED" fill-opacity="0.5"/>
<ellipse cx="116" cy="37.8665" rx="4" ry="4.2074" fill="#EDEDED" fill-opacity="0.5"/>
<ellipse cx="116" cy="172.503" rx="4" ry="4.2074" fill="#EDEDED" fill-opacity="0.5"/>
<ellipse cx="116" cy="21.037" rx="4" ry="4.2074" fill="#EDEDED" fill-opacity="0.5"/>
<ellipse cx="52" cy="138.844" rx="4" ry="4.2074" fill="#EDEDED" fill-opacity="0.5"/>
<ellipse cx="52" cy="155.673" rx="4" ry="4.20737" fill="#EDEDED" fill-opacity="0.5"/>
<ellipse cx="52" cy="37.8665" rx="4" ry="4.2074" fill="#EDEDED" fill-opacity="0.5"/>
<ellipse cx="68" cy="54.6959" rx="4" ry="4.2074" fill="#EDEDED" fill-opacity="0.5"/>
<ellipse cx="132" cy="54.6959" rx="4" ry="4.2074" fill="#EDEDED" fill-opacity="0.5"/>
<ellipse cx="132" cy="105.185" rx="4" ry="4.20737" fill="#EDEDED" fill-opacity="0.5"/>
<ellipse cx="68" cy="105.185" rx="4" ry="4.20737" fill="#EDEDED" fill-opacity="0.5"/>
<ellipse cx="68" cy="71.5255" rx="4" ry="4.20743" fill="#EDEDED" fill-opacity="0.5"/>
<ellipse cx="132" cy="71.5255" rx="4" ry="4.20743" fill="#EDEDED" fill-opacity="0.5"/>
<ellipse cx="132" cy="122.014" rx="4" ry="4.20737" fill="#EDEDED" fill-opacity="0.5"/>
<ellipse cx="68" cy="122.014" rx="4" ry="4.20737" fill="#EDEDED" fill-opacity="0.5"/>
<ellipse cx="68" cy="88.3551" rx="4" ry="4.2074" fill="#EDEDED" fill-opacity="0.5"/>
<ellipse cx="132" cy="88.3551" rx="4" ry="4.2074" fill="#EDEDED" fill-opacity="0.5"/>
<ellipse cx="132" cy="138.844" rx="4" ry="4.2074" fill="#EDEDED" fill-opacity="0.5"/>
<ellipse cx="132" cy="155.673" rx="4" ry="4.20737" fill="#EDEDED" fill-opacity="0.5"/>
<ellipse cx="132" cy="37.8665" rx="4" ry="4.2074" fill="#EDEDED" fill-opacity="0.5"/>
<ellipse cx="68" cy="138.844" rx="4" ry="4.2074" fill="#EDEDED" fill-opacity="0.5"/>
<ellipse cx="68" cy="155.673" rx="4" ry="4.20737" fill="#EDEDED" fill-opacity="0.5"/>
<ellipse cx="68" cy="37.8665" rx="4" ry="4.2074" fill="#EDEDED" fill-opacity="0.5"/>
<ellipse cx="68" cy="172.503" rx="4" ry="4.2074" fill="#EDEDED" fill-opacity="0.5"/>
<ellipse cx="68" cy="21.037" rx="4" ry="4.2074" fill="#EDEDED" fill-opacity="0.5"/>
<ellipse cx="84" cy="54.6959" rx="4" ry="4.2074" fill="#EDEDED" fill-opacity="0.5"/>
<ellipse cx="148" cy="54.6959" rx="4" ry="4.2074" fill="#EDEDED" fill-opacity="0.5"/>
<ellipse cx="148" cy="105.185" rx="4" ry="4.20737" fill="#EDEDED" fill-opacity="0.5"/>
<ellipse cx="84" cy="105.185" rx="4" ry="4.20737" fill="#EDEDED" fill-opacity="0.5"/>
<ellipse cx="84" cy="71.5255" rx="4" ry="4.20743" fill="#EDEDED" fill-opacity="0.5"/>
<ellipse cx="148" cy="71.5255" rx="4" ry="4.20743" fill="#EDEDED" fill-opacity="0.5"/>
<ellipse cx="148" cy="122.014" rx="4" ry="4.20737" fill="#EDEDED" fill-opacity="0.5"/>
<ellipse cx="84" cy="122.014" rx="4" ry="4.20737" fill="#EDEDED" fill-opacity="0.5"/>
<ellipse cx="84" cy="88.3551" rx="4" ry="4.2074" fill="#EDEDED" fill-opacity="0.5"/>
<ellipse cx="148" cy="88.3551" rx="4" ry="4.2074" fill="#EDEDED" fill-opacity="0.5"/>
<ellipse cx="148" cy="138.844" rx="4" ry="4.2074" fill="#EDEDED" fill-opacity="0.5"/>
<ellipse cx="84" cy="138.844" rx="4" ry="4.2074" fill="#EDEDED" fill-opacity="0.5"/>
<ellipse cx="84" cy="155.673" rx="4" ry="4.20737" fill="#EDEDED" fill-opacity="0.5"/>
<ellipse cx="84" cy="37.8665" rx="4" ry="4.2074" fill="#EDEDED" fill-opacity="0.5"/>
<ellipse cx="84" cy="172.503" rx="4" ry="4.2074" fill="#EDEDED" fill-opacity="0.5"/>
<ellipse cx="84" cy="189.332" rx="4" ry="4.20737" fill="#EDEDED" fill-opacity="0.5"/>
<ellipse cx="84" cy="4.20737" rx="4" ry="4.20737" fill="#EDEDED" fill-opacity="0.5"/>
<ellipse cx="84" cy="21.037" rx="4" ry="4.2074" fill="#EDEDED" fill-opacity="0.5"/>
</svg>
