<svg width="184" height="195" viewBox="0 0 184 195" fill="none" xmlns="http://www.w3.org/2000/svg">
<ellipse cx="36" cy="55.2067" rx="4" ry="4.2074" fill="#EDEDED" fill-opacity="0.5"/>
<ellipse cx="100" cy="55.2067" rx="4" ry="4.2074" fill="#EDEDED" fill-opacity="0.5"/>
<ellipse cx="100" cy="105.695" rx="4" ry="4.20741" fill="#EDEDED" fill-opacity="0.5"/>
<ellipse cx="36" cy="105.695" rx="4" ry="4.20741" fill="#EDEDED" fill-opacity="0.5"/>
<ellipse cx="20" cy="105.695" rx="4" ry="4.20741" fill="#EDEDED" fill-opacity="0.5"/>
<ellipse cx="164" cy="105.695" rx="4" ry="4.20741" fill="#EDEDED" fill-opacity="0.5"/>
<ellipse cx="180" cy="105.695" rx="4" ry="4.20741" fill="#EDEDED" fill-opacity="0.5"/>
<ellipse cx="4" cy="105.695" rx="4" ry="4.20741" fill="#EDEDED" fill-opacity="0.5"/>
<ellipse cx="36" cy="72.0362" rx="4" ry="4.20739" fill="#EDEDED" fill-opacity="0.5"/>
<ellipse cx="20" cy="72.0362" rx="4" ry="4.20739" fill="#EDEDED" fill-opacity="0.5"/>
<ellipse cx="164" cy="72.0362" rx="4" ry="4.20739" fill="#EDEDED" fill-opacity="0.5"/>
<ellipse cx="100" cy="72.0362" rx="4" ry="4.20739" fill="#EDEDED" fill-opacity="0.5"/>
<ellipse cx="100" cy="122.525" rx="4" ry="4.2074" fill="#EDEDED" fill-opacity="0.5"/>
<ellipse cx="36" cy="122.525" rx="4" ry="4.2074" fill="#EDEDED" fill-opacity="0.5"/>
<ellipse cx="20" cy="122.525" rx="4" ry="4.2074" fill="#EDEDED" fill-opacity="0.5"/>
<ellipse cx="164" cy="122.525" rx="4" ry="4.2074" fill="#EDEDED" fill-opacity="0.5"/>
<ellipse cx="36" cy="88.8658" rx="4" ry="4.20739" fill="#EDEDED" fill-opacity="0.5"/>
<ellipse cx="20" cy="88.8658" rx="4" ry="4.20739" fill="#EDEDED" fill-opacity="0.5"/>
<ellipse cx="164" cy="88.8658" rx="4" ry="4.20739" fill="#EDEDED" fill-opacity="0.5"/>
<ellipse cx="180" cy="88.8658" rx="4" ry="4.20739" fill="#EDEDED" fill-opacity="0.5"/>
<ellipse cx="4" cy="88.8658" rx="4" ry="4.20739" fill="#EDEDED" fill-opacity="0.5"/>
<ellipse cx="100" cy="88.8658" rx="4" ry="4.20739" fill="#EDEDED" fill-opacity="0.5"/>
<ellipse cx="100" cy="139.354" rx="4" ry="4.20739" fill="#EDEDED" fill-opacity="0.5"/>
<ellipse cx="100" cy="156.184" rx="4" ry="4.20739" fill="#EDEDED" fill-opacity="0.5"/>
<ellipse cx="100" cy="38.3772" rx="4" ry="4.20739" fill="#EDEDED" fill-opacity="0.5"/>
<ellipse cx="100" cy="173.014" rx="4" ry="4.20738" fill="#EDEDED" fill-opacity="0.5"/>
<ellipse cx="100" cy="189.843" rx="4" ry="4.2074" fill="#EDEDED" fill-opacity="0.5"/>
<ellipse cx="100" cy="4.71807" rx="4" ry="4.20739" fill="#EDEDED" fill-opacity="0.5"/>
<ellipse cx="100" cy="21.5476" rx="4" ry="4.20739" fill="#EDEDED" fill-opacity="0.5"/>
<ellipse cx="36" cy="139.354" rx="4" ry="4.20739" fill="#EDEDED" fill-opacity="0.5"/>
<ellipse cx="52" cy="55.2067" rx="4" ry="4.2074" fill="#EDEDED" fill-opacity="0.5"/>
<ellipse cx="116" cy="55.2067" rx="4" ry="4.2074" fill="#EDEDED" fill-opacity="0.5"/>
<ellipse cx="116" cy="105.695" rx="4" ry="4.20741" fill="#EDEDED" fill-opacity="0.5"/>
<ellipse cx="52" cy="105.695" rx="4" ry="4.20741" fill="#EDEDED" fill-opacity="0.5"/>
<ellipse cx="52" cy="72.0362" rx="4" ry="4.20739" fill="#EDEDED" fill-opacity="0.5"/>
<ellipse cx="116" cy="72.0362" rx="4" ry="4.20739" fill="#EDEDED" fill-opacity="0.5"/>
<ellipse cx="116" cy="122.525" rx="4" ry="4.2074" fill="#EDEDED" fill-opacity="0.5"/>
<ellipse cx="52" cy="122.525" rx="4" ry="4.2074" fill="#EDEDED" fill-opacity="0.5"/>
<ellipse cx="52" cy="88.8658" rx="4" ry="4.20739" fill="#EDEDED" fill-opacity="0.5"/>
<ellipse cx="116" cy="88.8658" rx="4" ry="4.20739" fill="#EDEDED" fill-opacity="0.5"/>
<ellipse cx="116" cy="139.354" rx="4" ry="4.20739" fill="#EDEDED" fill-opacity="0.5"/>
<ellipse cx="116" cy="156.184" rx="4" ry="4.20739" fill="#EDEDED" fill-opacity="0.5"/>
<ellipse cx="116" cy="38.3772" rx="4" ry="4.20739" fill="#EDEDED" fill-opacity="0.5"/>
<ellipse cx="116" cy="173.014" rx="4" ry="4.20738" fill="#EDEDED" fill-opacity="0.5"/>
<ellipse cx="116" cy="21.5476" rx="4" ry="4.20739" fill="#EDEDED" fill-opacity="0.5"/>
<ellipse cx="52" cy="139.354" rx="4" ry="4.20739" fill="#EDEDED" fill-opacity="0.5"/>
<ellipse cx="52" cy="156.184" rx="4" ry="4.20739" fill="#EDEDED" fill-opacity="0.5"/>
<ellipse cx="52" cy="38.3772" rx="4" ry="4.20739" fill="#EDEDED" fill-opacity="0.5"/>
<ellipse cx="68" cy="55.2067" rx="4" ry="4.2074" fill="#EDEDED" fill-opacity="0.5"/>
<ellipse cx="132" cy="55.2067" rx="4" ry="4.2074" fill="#EDEDED" fill-opacity="0.5"/>
<ellipse cx="132" cy="105.695" rx="4" ry="4.20741" fill="#EDEDED" fill-opacity="0.5"/>
<ellipse cx="68" cy="105.695" rx="4" ry="4.20741" fill="#EDEDED" fill-opacity="0.5"/>
<ellipse cx="68" cy="72.0362" rx="4" ry="4.20739" fill="#EDEDED" fill-opacity="0.5"/>
<ellipse cx="132" cy="72.0362" rx="4" ry="4.20739" fill="#EDEDED" fill-opacity="0.5"/>
<ellipse cx="132" cy="122.525" rx="4" ry="4.2074" fill="#EDEDED" fill-opacity="0.5"/>
<ellipse cx="68" cy="122.525" rx="4" ry="4.2074" fill="#EDEDED" fill-opacity="0.5"/>
<ellipse cx="68" cy="88.8658" rx="4" ry="4.20739" fill="#EDEDED" fill-opacity="0.5"/>
<ellipse cx="132" cy="88.8658" rx="4" ry="4.20739" fill="#EDEDED" fill-opacity="0.5"/>
<ellipse cx="132" cy="139.354" rx="4" ry="4.20739" fill="#EDEDED" fill-opacity="0.5"/>
<ellipse cx="132" cy="156.184" rx="4" ry="4.20739" fill="#EDEDED" fill-opacity="0.5"/>
<ellipse cx="132" cy="38.3772" rx="4" ry="4.20739" fill="#EDEDED" fill-opacity="0.5"/>
<ellipse cx="68" cy="139.354" rx="4" ry="4.20739" fill="#EDEDED" fill-opacity="0.5"/>
<ellipse cx="68" cy="156.184" rx="4" ry="4.20739" fill="#EDEDED" fill-opacity="0.5"/>
<ellipse cx="68" cy="38.3772" rx="4" ry="4.20739" fill="#EDEDED" fill-opacity="0.5"/>
<ellipse cx="68" cy="173.014" rx="4" ry="4.20738" fill="#EDEDED" fill-opacity="0.5"/>
<ellipse cx="68" cy="21.5476" rx="4" ry="4.20739" fill="#EDEDED" fill-opacity="0.5"/>
<ellipse cx="84" cy="55.2067" rx="4" ry="4.2074" fill="#EDEDED" fill-opacity="0.5"/>
<ellipse cx="148" cy="55.2067" rx="4" ry="4.2074" fill="#EDEDED" fill-opacity="0.5"/>
<ellipse cx="148" cy="105.695" rx="4" ry="4.20741" fill="#EDEDED" fill-opacity="0.5"/>
<ellipse cx="84" cy="105.695" rx="4" ry="4.20741" fill="#EDEDED" fill-opacity="0.5"/>
<ellipse cx="84" cy="72.0362" rx="4" ry="4.20739" fill="#EDEDED" fill-opacity="0.5"/>
<ellipse cx="148" cy="72.0362" rx="4" ry="4.20739" fill="#EDEDED" fill-opacity="0.5"/>
<ellipse cx="148" cy="122.525" rx="4" ry="4.2074" fill="#EDEDED" fill-opacity="0.5"/>
<ellipse cx="84" cy="122.525" rx="4" ry="4.2074" fill="#EDEDED" fill-opacity="0.5"/>
<ellipse cx="84" cy="88.8658" rx="4" ry="4.20739" fill="#EDEDED" fill-opacity="0.5"/>
<ellipse cx="148" cy="88.8658" rx="4" ry="4.20739" fill="#EDEDED" fill-opacity="0.5"/>
<ellipse cx="148" cy="139.354" rx="4" ry="4.20739" fill="#EDEDED" fill-opacity="0.5"/>
<ellipse cx="84" cy="139.354" rx="4" ry="4.20739" fill="#EDEDED" fill-opacity="0.5"/>
<ellipse cx="84" cy="156.184" rx="4" ry="4.20739" fill="#EDEDED" fill-opacity="0.5"/>
<ellipse cx="84" cy="38.3772" rx="4" ry="4.20739" fill="#EDEDED" fill-opacity="0.5"/>
<ellipse cx="84" cy="173.014" rx="4" ry="4.20738" fill="#EDEDED" fill-opacity="0.5"/>
<ellipse cx="84" cy="189.843" rx="4" ry="4.2074" fill="#EDEDED" fill-opacity="0.5"/>
<ellipse cx="84" cy="4.71807" rx="4" ry="4.20739" fill="#EDEDED" fill-opacity="0.5"/>
<ellipse cx="84" cy="21.5476" rx="4" ry="4.20739" fill="#EDEDED" fill-opacity="0.5"/>
</svg>
