<svg width="143" height="194" viewBox="0 0 143 194" fill="none" xmlns="http://www.w3.org/2000/svg">
<ellipse cx="59" cy="54.8736" rx="4" ry="4.20739" fill="#EDEDED" fill-opacity="0.5"/>
<ellipse cx="59" cy="105.362" rx="4" ry="4.20739" fill="#EDEDED" fill-opacity="0.5"/>
<ellipse cx="123" cy="105.362" rx="4" ry="4.20739" fill="#EDEDED" fill-opacity="0.5"/>
<ellipse cx="139" cy="105.362" rx="4" ry="4.20739" fill="#EDEDED" fill-opacity="0.5"/>
<ellipse cx="123" cy="71.7031" rx="4" ry="4.20739" fill="#EDEDED" fill-opacity="0.5"/>
<ellipse cx="59" cy="71.7031" rx="4" ry="4.20739" fill="#EDEDED" fill-opacity="0.5"/>
<ellipse cx="59" cy="122.192" rx="4" ry="4.20738" fill="#EDEDED" fill-opacity="0.5"/>
<ellipse cx="123" cy="122.192" rx="4" ry="4.20738" fill="#EDEDED" fill-opacity="0.5"/>
<ellipse cx="123" cy="88.5327" rx="4" ry="4.20738" fill="#EDEDED" fill-opacity="0.5"/>
<ellipse cx="139" cy="88.5327" rx="4" ry="4.20738" fill="#EDEDED" fill-opacity="0.5"/>
<ellipse cx="59" cy="88.5327" rx="4" ry="4.20738" fill="#EDEDED" fill-opacity="0.5"/>
<ellipse cx="59" cy="139.021" rx="4" ry="4.20739" fill="#EDEDED" fill-opacity="0.5"/>
<ellipse cx="59" cy="155.851" rx="4" ry="4.20737" fill="#EDEDED" fill-opacity="0.5"/>
<ellipse cx="59" cy="38.0441" rx="4" ry="4.20738" fill="#EDEDED" fill-opacity="0.5"/>
<ellipse cx="59" cy="172.68" rx="4" ry="4.20739" fill="#EDEDED" fill-opacity="0.5"/>
<ellipse cx="59" cy="189.51" rx="4" ry="4.20738" fill="#EDEDED" fill-opacity="0.5"/>
<ellipse cx="59" cy="4.38494" rx="4" ry="4.20739" fill="#EDEDED" fill-opacity="0.5"/>
<ellipse cx="59" cy="21.2145" rx="4" ry="4.20739" fill="#EDEDED" fill-opacity="0.5"/>
<ellipse cx="11" cy="54.8736" rx="4" ry="4.20739" fill="#EDEDED" fill-opacity="0.5"/>
<ellipse cx="75" cy="54.8736" rx="4" ry="4.20739" fill="#EDEDED" fill-opacity="0.5"/>
<ellipse cx="75" cy="105.362" rx="4" ry="4.20739" fill="#EDEDED" fill-opacity="0.5"/>
<ellipse cx="11" cy="105.362" rx="4" ry="4.20739" fill="#EDEDED" fill-opacity="0.5"/>
<ellipse cx="11" cy="71.7031" rx="4" ry="4.20739" fill="#EDEDED" fill-opacity="0.5"/>
<ellipse cx="75" cy="71.7031" rx="4" ry="4.20739" fill="#EDEDED" fill-opacity="0.5"/>
<ellipse cx="75" cy="122.192" rx="4" ry="4.20738" fill="#EDEDED" fill-opacity="0.5"/>
<ellipse cx="11" cy="122.192" rx="4" ry="4.20738" fill="#EDEDED" fill-opacity="0.5"/>
<ellipse cx="11" cy="88.5327" rx="4" ry="4.20738" fill="#EDEDED" fill-opacity="0.5"/>
<ellipse cx="75" cy="88.5327" rx="4" ry="4.20738" fill="#EDEDED" fill-opacity="0.5"/>
<ellipse cx="75" cy="139.021" rx="4" ry="4.20739" fill="#EDEDED" fill-opacity="0.5"/>
<ellipse cx="75" cy="155.851" rx="4" ry="4.20737" fill="#EDEDED" fill-opacity="0.5"/>
<ellipse cx="75" cy="38.0441" rx="4" ry="4.20738" fill="#EDEDED" fill-opacity="0.5"/>
<ellipse cx="75" cy="172.68" rx="4" ry="4.20739" fill="#EDEDED" fill-opacity="0.5"/>
<ellipse cx="75" cy="21.2145" rx="4" ry="4.20739" fill="#EDEDED" fill-opacity="0.5"/>
<ellipse cx="11" cy="139.021" rx="4" ry="4.20739" fill="#EDEDED" fill-opacity="0.5"/>
<ellipse cx="11" cy="155.851" rx="4" ry="4.20737" fill="#EDEDED" fill-opacity="0.5"/>
<ellipse cx="11" cy="38.0441" rx="4" ry="4.20738" fill="#EDEDED" fill-opacity="0.5"/>
<ellipse cx="27" cy="54.8736" rx="4" ry="4.20739" fill="#EDEDED" fill-opacity="0.5"/>
<ellipse cx="91" cy="54.8736" rx="4" ry="4.20739" fill="#EDEDED" fill-opacity="0.5"/>
<ellipse cx="91" cy="105.362" rx="4" ry="4.20739" fill="#EDEDED" fill-opacity="0.5"/>
<ellipse cx="27" cy="105.362" rx="4" ry="4.20739" fill="#EDEDED" fill-opacity="0.5"/>
<ellipse cx="27" cy="71.7031" rx="4" ry="4.20739" fill="#EDEDED" fill-opacity="0.5"/>
<ellipse cx="91" cy="71.7031" rx="4" ry="4.20739" fill="#EDEDED" fill-opacity="0.5"/>
<ellipse cx="91" cy="122.192" rx="4" ry="4.20738" fill="#EDEDED" fill-opacity="0.5"/>
<ellipse cx="27" cy="122.192" rx="4" ry="4.20738" fill="#EDEDED" fill-opacity="0.5"/>
<ellipse cx="27" cy="88.5327" rx="4" ry="4.20738" fill="#EDEDED" fill-opacity="0.5"/>
<ellipse cx="91" cy="88.5327" rx="4" ry="4.20738" fill="#EDEDED" fill-opacity="0.5"/>
<ellipse cx="91" cy="139.021" rx="4" ry="4.20739" fill="#EDEDED" fill-opacity="0.5"/>
<ellipse cx="91" cy="155.851" rx="4" ry="4.20737" fill="#EDEDED" fill-opacity="0.5"/>
<ellipse cx="91" cy="38.0441" rx="4" ry="4.20738" fill="#EDEDED" fill-opacity="0.5"/>
<ellipse cx="27" cy="139.021" rx="4" ry="4.20739" fill="#EDEDED" fill-opacity="0.5"/>
<ellipse cx="27" cy="155.851" rx="4" ry="4.20737" fill="#EDEDED" fill-opacity="0.5"/>
<ellipse cx="27" cy="38.0441" rx="4" ry="4.20738" fill="#EDEDED" fill-opacity="0.5"/>
<ellipse cx="27" cy="172.68" rx="4" ry="4.20739" fill="#EDEDED" fill-opacity="0.5"/>
<ellipse cx="27" cy="21.2145" rx="4" ry="4.20739" fill="#EDEDED" fill-opacity="0.5"/>
<ellipse cx="43" cy="54.8736" rx="4" ry="4.20739" fill="#EDEDED" fill-opacity="0.5"/>
<ellipse cx="107" cy="54.8736" rx="4" ry="4.20739" fill="#EDEDED" fill-opacity="0.5"/>
<ellipse cx="107" cy="105.362" rx="4" ry="4.20739" fill="#EDEDED" fill-opacity="0.5"/>
<ellipse cx="43" cy="105.362" rx="4" ry="4.20739" fill="#EDEDED" fill-opacity="0.5"/>
<ellipse cx="43" cy="71.7031" rx="4" ry="4.20739" fill="#EDEDED" fill-opacity="0.5"/>
<ellipse cx="107" cy="71.7031" rx="4" ry="4.20739" fill="#EDEDED" fill-opacity="0.5"/>
<ellipse cx="107" cy="122.192" rx="4" ry="4.20738" fill="#EDEDED" fill-opacity="0.5"/>
<ellipse cx="43" cy="122.192" rx="4" ry="4.20738" fill="#EDEDED" fill-opacity="0.5"/>
<ellipse cx="43" cy="88.5327" rx="4" ry="4.20738" fill="#EDEDED" fill-opacity="0.5"/>
<ellipse cx="107" cy="88.5327" rx="4" ry="4.20738" fill="#EDEDED" fill-opacity="0.5"/>
<ellipse cx="107" cy="139.021" rx="4" ry="4.20739" fill="#EDEDED" fill-opacity="0.5"/>
<ellipse cx="43" cy="139.021" rx="4" ry="4.20739" fill="#EDEDED" fill-opacity="0.5"/>
<ellipse cx="43" cy="155.851" rx="4" ry="4.20737" fill="#EDEDED" fill-opacity="0.5"/>
<ellipse cx="43" cy="38.0441" rx="4" ry="4.20738" fill="#EDEDED" fill-opacity="0.5"/>
<ellipse cx="43" cy="172.68" rx="4" ry="4.20739" fill="#EDEDED" fill-opacity="0.5"/>
<ellipse cx="43" cy="189.51" rx="4" ry="4.20738" fill="#EDEDED" fill-opacity="0.5"/>
<ellipse cx="43" cy="4.38494" rx="4" ry="4.20739" fill="#EDEDED" fill-opacity="0.5"/>
<ellipse cx="43" cy="21.2145" rx="4" ry="4.20739" fill="#EDEDED" fill-opacity="0.5"/>
</svg>
