<svg width="184" height="184" viewBox="0 0 184 184" fill="none" xmlns="http://www.w3.org/2000/svg">
<circle cx="36" cy="52" r="4" fill="#EDEDED" fill-opacity="0.05"/>
<circle cx="100" cy="52" r="4" fill="#EDEDED" fill-opacity="0.05"/>
<circle cx="100" cy="100" r="4" fill="#EDEDED" fill-opacity="0.05"/>
<circle cx="36" cy="100" r="4" fill="#EDEDED" fill-opacity="0.05"/>
<circle cx="20" cy="100" r="4" fill="#EDEDED" fill-opacity="0.05"/>
<circle cx="164" cy="100" r="4" fill="#EDEDED" fill-opacity="0.05"/>
<circle cx="180" cy="100" r="4" fill="#EDEDED" fill-opacity="0.05"/>
<circle cx="4" cy="100" r="4" fill="#EDEDED" fill-opacity="0.05"/>
<circle cx="36" cy="68" r="4" fill="#EDEDED" fill-opacity="0.05"/>
<circle cx="20" cy="68" r="4" fill="#EDEDED" fill-opacity="0.05"/>
<circle cx="164" cy="68" r="4" fill="#EDEDED" fill-opacity="0.05"/>
<circle cx="100" cy="68" r="4" fill="#EDEDED" fill-opacity="0.05"/>
<circle cx="100" cy="116" r="4" fill="#EDEDED" fill-opacity="0.05"/>
<circle cx="36" cy="116" r="4" fill="#EDEDED" fill-opacity="0.05"/>
<circle cx="20" cy="116" r="4" fill="#EDEDED" fill-opacity="0.05"/>
<circle cx="164" cy="116" r="4" fill="#EDEDED" fill-opacity="0.05"/>
<circle cx="36" cy="84" r="4" fill="#EDEDED" fill-opacity="0.05"/>
<circle cx="20" cy="84" r="4" fill="#EDEDED" fill-opacity="0.05"/>
<circle cx="164" cy="84" r="4" fill="#EDEDED" fill-opacity="0.05"/>
<circle cx="180" cy="84" r="4" fill="#EDEDED" fill-opacity="0.05"/>
<circle cx="4" cy="84" r="4" fill="#EDEDED" fill-opacity="0.05"/>
<circle cx="100" cy="84" r="4" fill="#EDEDED" fill-opacity="0.05"/>
<circle cx="100" cy="132" r="4" fill="#EDEDED" fill-opacity="0.05"/>
<circle cx="100" cy="148" r="4" fill="#EDEDED" fill-opacity="0.05"/>
<circle cx="100" cy="36" r="4" fill="#EDEDED" fill-opacity="0.05"/>
<circle cx="100" cy="164" r="4" fill="#EDEDED" fill-opacity="0.05"/>
<circle cx="100" cy="180" r="4" fill="#EDEDED" fill-opacity="0.05"/>
<circle cx="100" cy="4" r="4" fill="#EDEDED" fill-opacity="0.05"/>
<circle cx="100" cy="20" r="4" fill="#EDEDED" fill-opacity="0.05"/>
<circle cx="36" cy="132" r="4" fill="#EDEDED" fill-opacity="0.05"/>
<circle cx="52" cy="52" r="4" fill="#EDEDED" fill-opacity="0.05"/>
<circle cx="116" cy="52" r="4" fill="#EDEDED" fill-opacity="0.05"/>
<circle cx="116" cy="100" r="4" fill="#EDEDED" fill-opacity="0.05"/>
<circle cx="52" cy="100" r="4" fill="#EDEDED" fill-opacity="0.05"/>
<circle cx="52" cy="68" r="4" fill="#EDEDED" fill-opacity="0.05"/>
<circle cx="116" cy="68" r="4" fill="#EDEDED" fill-opacity="0.05"/>
<circle cx="116" cy="116" r="4" fill="#EDEDED" fill-opacity="0.05"/>
<circle cx="52" cy="116" r="4" fill="#EDEDED" fill-opacity="0.05"/>
<circle cx="52" cy="84" r="4" fill="#EDEDED" fill-opacity="0.05"/>
<circle cx="116" cy="84" r="4" fill="#EDEDED" fill-opacity="0.05"/>
<circle cx="116" cy="132" r="4" fill="#EDEDED" fill-opacity="0.05"/>
<circle cx="116" cy="148" r="4" fill="#EDEDED" fill-opacity="0.05"/>
<circle cx="116" cy="36" r="4" fill="#EDEDED" fill-opacity="0.05"/>
<circle cx="116" cy="164" r="4" fill="#EDEDED" fill-opacity="0.05"/>
<circle cx="116" cy="20" r="4" fill="#EDEDED" fill-opacity="0.05"/>
<circle cx="52" cy="132" r="4" fill="#EDEDED" fill-opacity="0.05"/>
<circle cx="52" cy="148" r="4" fill="#EDEDED" fill-opacity="0.05"/>
<circle cx="52" cy="36" r="4" fill="#EDEDED" fill-opacity="0.05"/>
<circle cx="68" cy="52" r="4" fill="#EDEDED" fill-opacity="0.05"/>
<circle cx="132" cy="52" r="4" fill="#EDEDED" fill-opacity="0.05"/>
<circle cx="132" cy="100" r="4" fill="#EDEDED" fill-opacity="0.05"/>
<circle cx="68" cy="100" r="4" fill="#EDEDED" fill-opacity="0.05"/>
<circle cx="68" cy="68" r="4" fill="#EDEDED" fill-opacity="0.05"/>
<circle cx="132" cy="68" r="4" fill="#EDEDED" fill-opacity="0.05"/>
<circle cx="132" cy="116" r="4" fill="#EDEDED" fill-opacity="0.05"/>
<circle cx="68" cy="116" r="4" fill="#EDEDED" fill-opacity="0.05"/>
<circle cx="68" cy="84" r="4" fill="#EDEDED" fill-opacity="0.05"/>
<circle cx="132" cy="84" r="4" fill="#EDEDED" fill-opacity="0.05"/>
<circle cx="132" cy="132" r="4" fill="#EDEDED" fill-opacity="0.05"/>
<circle cx="132" cy="148" r="4" fill="#EDEDED" fill-opacity="0.05"/>
<circle cx="132" cy="36" r="4" fill="#EDEDED" fill-opacity="0.05"/>
<circle cx="68" cy="132" r="4" fill="#EDEDED" fill-opacity="0.05"/>
<circle cx="68" cy="148" r="4" fill="#EDEDED" fill-opacity="0.05"/>
<circle cx="68" cy="36" r="4" fill="#EDEDED" fill-opacity="0.05"/>
<circle cx="68" cy="164" r="4" fill="#EDEDED" fill-opacity="0.05"/>
<circle cx="68" cy="20" r="4" fill="#EDEDED" fill-opacity="0.05"/>
<circle cx="84" cy="52" r="4" fill="#EDEDED" fill-opacity="0.05"/>
<circle cx="148" cy="52" r="4" fill="#EDEDED" fill-opacity="0.05"/>
<circle cx="148" cy="100" r="4" fill="#EDEDED" fill-opacity="0.05"/>
<circle cx="84" cy="100" r="4" fill="#EDEDED" fill-opacity="0.05"/>
<circle cx="84" cy="68" r="4" fill="#EDEDED" fill-opacity="0.05"/>
<circle cx="148" cy="68" r="4" fill="#EDEDED" fill-opacity="0.05"/>
<circle cx="148" cy="116" r="4" fill="#EDEDED" fill-opacity="0.05"/>
<circle cx="84" cy="116" r="4" fill="#EDEDED" fill-opacity="0.05"/>
<circle cx="84" cy="84" r="4" fill="#EDEDED" fill-opacity="0.05"/>
<circle cx="148" cy="84" r="4" fill="#EDEDED" fill-opacity="0.05"/>
<circle cx="148" cy="132" r="4" fill="#EDEDED" fill-opacity="0.05"/>
<circle cx="84" cy="132" r="4" fill="#EDEDED" fill-opacity="0.05"/>
<circle cx="84" cy="148" r="4" fill="#EDEDED" fill-opacity="0.05"/>
<circle cx="84" cy="36" r="4" fill="#EDEDED" fill-opacity="0.05"/>
<circle cx="84" cy="164" r="4" fill="#EDEDED" fill-opacity="0.05"/>
<circle cx="84" cy="180" r="4" fill="#EDEDED" fill-opacity="0.05"/>
<circle cx="84" cy="4" r="4" fill="#EDEDED" fill-opacity="0.05"/>
<circle cx="84" cy="20" r="4" fill="#EDEDED" fill-opacity="0.05"/>
</svg>
